<svg width="2655" height="2897" viewBox="0 0 2655 2897" fill="none" xmlns="http://www.w3.org/2000/svg">
<path d="M2313.73 34.56H1875.61L1884.86 3.825L2323.92 0L2313.73 34.56Z" fill="white"/>
<path d="M1827.04 195.84H2266.16L2299 84.4805H1860.58L1827.04 195.84Z" fill="white"/>
<path d="M2218.6 357.12H1778.48L1812.01 245.76H2251.44L2218.6 357.12Z" fill="white"/>
<path d="M1729.91 518.399H2171.03L2203.87 407.039H1763.44L1729.91 518.399Z" fill="white"/>
<path d="M2654.27 568.32H1462.4L1429.93 679.68H2620.56L2654.27 568.32Z" fill="white"/>
<path d="M2605.45 729.6H1415.38L1382.9 840.96H2571.74L2605.45 729.6Z" fill="white"/>
<path d="M1368.35 890.881H2556.63L2518.5 1002.24H1335.88L1368.35 890.881Z" fill="white"/>
<path d="M2013.61 1052.16H1569.19L1535.66 1163.52H1980.77L2013.61 1052.16Z" fill="white"/>
<path d="M1520.63 1213.44H1966.05L1933.21 1324.8H1487.1L1520.63 1213.44Z" fill="white"/>
<path d="M2169.79 1374.72H2407.9L2374.75 1486.08H1964.21L1995.84 1381.16L2169.79 1374.72Z" fill="white"/>
<path d="M1472.07 1374.72H1918.48L1885.64 1486.08H1438.54L1472.07 1374.72Z" fill="white"/>
<path d="M1870.92 1536H1423.51L1389.97 1647.36H1838.08L1870.92 1536Z" fill="white"/>
<path d="M1374.94 1697.28H1823.35L1790.51 1808.64H1341.41L1374.94 1697.28Z" fill="white"/>
<path d="M1866.96 1808.64L1900.54 1697.28H2311.87L2278.71 1808.64H1866.96Z" fill="white"/>
<path d="M1326.37 1858.56H1775.79L1742.95 1969.92H1292.85L1326.37 1858.56Z" fill="white"/>
<path d="M1728.22 2019.84H1277.81L1244.28 2131.2H1695.37L1728.22 2019.84Z" fill="white"/>
<path d="M1229.25 2181.12H1680.65L1647.81 2292.48H1195.72L1229.25 2181.12Z" fill="white"/>
<path d="M1633.09 2342.4H1180.69L1176.01 2357.94L1628.44 2358.15L1633.09 2342.4Z" fill="white"/>
<path d="M1915.59 1647.36H2326.73L2359.88 1536H1949.16L1915.59 1647.36Z" fill="white"/>
<path d="M1489.92 21.8027H1051.2L641.28 1383.08L141.12 1396.52L0 1865.01L502.08 1845.81L342.72 2375.73H794.88L957.12 1826.61L1197.12 1817.01L1333.44 1364.84L1091.52 1371.56L1489.92 21.8027Z" fill="white"/>
<path d="M762.24 566.121L387.84 578.601L243.84 1057.64L619.2 1040.36L762.24 566.121Z" fill="white"/>
<path d="M607.791 2896.56V2517.15H541.785V2673.59H351.563V2732.32H541.785V2896.56H607.791ZM303.748 2896.56V2517.15H237.742V2896.56H303.748Z" fill="white"/>
<path d="M1118.11 2895L900.343 2533.27C892.547 2520.27 883.192 2511.96 868.64 2511.96C854.087 2511.96 844.212 2520.27 836.416 2533.27L619.169 2895H694.53L866.041 2604.99L950.238 2746.36H834.338L803.154 2799.89H981.941L1038.59 2895H1118.11Z" fill="white"/>
<path d="M1413.45 2895C1492.45 2895 1530.91 2847.7 1530.91 2784.3C1530.91 2711.01 1489.85 2675.15 1413.45 2675.15H1240.38C1211.28 2675.15 1193.09 2658 1193.09 2629.42C1193.09 2600.83 1210.76 2583.16 1240.9 2583.16H1512.2V2517.15H1240.9C1165.54 2517.15 1124.48 2562.37 1124.48 2623.18C1124.48 2685.55 1168.66 2730.76 1239.86 2730.76H1413.45C1448.79 2730.76 1468.54 2747.4 1468.54 2779.62C1468.54 2809.24 1448.79 2828.99 1413.45 2828.99H1130.2V2895H1413.45Z" fill="white"/>
<path d="M1928.97 2896.56V2517.15H1862.96V2673.59H1672.74V2732.32H1862.96V2896.56H1928.97ZM1624.92 2896.56V2517.15H1558.92V2896.56H1624.92Z" fill="white"/>
<path d="M2175.01 2688V2657.79H2037.53V2635.19C2037.53 2620.45 2046.09 2612.84 2062.26 2612.84H2125.06C2157.88 2612.84 2177.86 2592.14 2177.86 2563.6C2177.86 2535.77 2159.07 2515.08 2124.82 2515.08H2010.41V2545.28H2124.82C2138.38 2545.28 2146.71 2553.37 2146.71 2566.45C2146.71 2579.54 2137.9 2587.38 2124.82 2587.38H2062.26C2027.54 2587.38 2008.98 2603.8 2008.98 2637.34V2688H2175.01Z" fill="white"/>
<path d="M2289.94 2690.14C2340.37 2690.14 2379.62 2650.18 2379.62 2599.75C2379.62 2549.09 2340.37 2512.93 2289.94 2512.93C2239.28 2512.93 2200.27 2549.09 2200.27 2599.75C2200.27 2650.18 2239.28 2690.14 2289.94 2690.14ZM2349.17 2601.18C2349.17 2634.48 2327.76 2659.93 2289.71 2659.93C2251.89 2659.93 2230.48 2634.48 2230.48 2601.18C2230.48 2567.88 2251.89 2543.38 2289.94 2543.38C2327.53 2543.38 2349.17 2567.88 2349.17 2601.18Z" fill="white"/>
<path d="M2175.01 2889V2858.79H2037.53V2836.19C2037.53 2821.45 2046.09 2813.84 2062.26 2813.84H2125.06C2157.88 2813.84 2177.86 2793.14 2177.86 2764.6C2177.86 2736.77 2159.07 2716.08 2124.82 2716.08H2010.41V2746.28H2124.82C2138.38 2746.28 2146.71 2754.37 2146.71 2767.45C2146.71 2780.54 2137.9 2788.38 2124.82 2788.38H2062.26C2027.54 2788.38 2008.98 2804.8 2008.98 2838.34V2889H2175.01Z" fill="white"/>
<path d="M2371.29 2889V2858.79H2233.81V2836.19C2233.81 2821.45 2242.37 2813.84 2258.55 2813.84H2321.34C2354.17 2813.84 2374.15 2793.14 2374.15 2764.6C2374.15 2736.77 2355.35 2716.08 2321.1 2716.08H2206.69V2746.28H2321.1C2334.66 2746.28 2342.99 2754.37 2342.99 2767.45C2342.99 2780.54 2334.19 2788.38 2321.1 2788.38H2258.55C2223.82 2788.38 2205.27 2804.8 2205.27 2838.34V2889H2371.29Z" fill="white"/>
</svg>
